<svg width="55" height="55" viewBox="0 0 55 55" fill="none" xmlns="http://www.w3.org/2000/svg">
<path fill-rule="evenodd" clip-rule="evenodd" d="M4.58325 13.75C4.58325 9.95304 7.66129 6.875 11.4583 6.875H34.3749C38.1719 6.875 41.2499 9.95304 41.2499 13.75V16.0417H43.5416C47.3385 16.0417 50.4166 19.1197 50.4166 22.9167V36.6667C50.4166 40.4636 47.3385 43.5417 43.5416 43.5417H41.2499V50.4167C41.2499 51.3436 40.6916 52.1792 39.8352 52.5339C38.9789 52.8886 37.9932 52.6925 37.3378 52.0371L28.8423 43.5417H20.6249C19.5644 43.5417 18.5588 43.3006 17.6613 42.8712C17.0059 43.526 16.0206 43.7218 15.1646 43.3672C14.3083 43.0125 13.7499 42.1769 13.7499 41.25V34.375H11.4583C7.66129 34.375 4.58325 31.297 4.58325 27.5V13.75ZM21.5742 38.9583H29.7916C30.3994 38.9583 30.9823 39.1998 31.412 39.6295L36.6666 44.8841V41.25C36.6666 39.9843 37.6926 38.9583 38.9583 38.9583H43.5416C44.8072 38.9583 45.8333 37.9323 45.8333 36.6667V22.9167C45.8333 21.651 44.8072 20.625 43.5416 20.625H41.2499V27.5C41.2499 31.297 38.1719 34.375 34.3749 34.375H26.1575L21.5742 38.9583ZM36.6666 13.75C36.6666 12.4843 35.6406 11.4583 34.3749 11.4583H11.4583C10.1926 11.4583 9.16659 12.4843 9.16659 13.75V27.5C9.16659 28.7657 10.1926 29.7917 11.4583 29.7917H16.0416C17.3072 29.7917 18.3333 30.8177 18.3333 32.0833V35.7174L23.5878 30.4629C24.0176 30.0331 24.6005 29.7917 25.2083 29.7917H34.3749C35.6406 29.7917 36.6666 28.7657 36.6666 27.5V13.75Z" fill="#7F22FE"/>
</svg>
