<svg width="61" height="61" viewBox="0 0 61 61" fill="none" xmlns="http://www.w3.org/2000/svg">
<path fill-rule="evenodd" clip-rule="evenodd" d="M13.0933 13.0933C14.2844 11.9022 16.2155 11.9022 17.4066 13.0933L30.5 26.1866L43.5933 13.0933C44.7844 11.9022 46.7155 11.9022 47.9066 13.0933C49.0977 14.2844 49.0977 16.2155 47.9066 17.4066L34.8133 30.5L47.9066 43.5933C49.0977 44.7844 49.0977 46.7155 47.9066 47.9066C46.7155 49.0977 44.7844 49.0977 43.5933 47.9066L30.5 34.8133L17.4066 47.9066C16.2155 49.0977 14.2844 49.0977 13.0933 47.9066C11.9022 46.7155 11.9022 44.7844 13.0933 43.5933L26.1866 30.5L13.0933 17.4066C11.9022 16.2155 11.9022 14.2844 13.0933 13.0933Z" fill="#7F22FE"/>
</svg>
