<svg width="62" height="62" viewBox="0 0 62 62" fill="none" xmlns="http://www.w3.org/2000/svg">
<path d="M18.5999 31C18.5999 34.4242 15.8241 37.2 12.4 37.2C8.97579 37.2 6.19995 34.4242 6.19995 31C6.19995 27.5759 8.97579 24.8 12.4 24.8C15.8241 24.8 18.5999 27.5759 18.5999 31Z" fill="#7F22FE"/>
<path d="M37.1999 31C37.1999 34.4242 34.4241 37.2 30.9999 37.2C27.5758 37.2 24.7999 34.4242 24.7999 31C24.7999 27.5759 27.5758 24.8 30.9999 24.8C34.4241 24.8 37.1999 27.5759 37.1999 31Z" fill="#7F22FE"/>
<path d="M49.5999 37.2C53.0241 37.2 55.7999 34.4242 55.7999 31C55.7999 27.5759 53.0241 24.8 49.5999 24.8C46.1758 24.8 43.3999 27.5759 43.3999 31C43.3999 34.4242 46.1758 37.2 49.5999 37.2Z" fill="#7F22FE"/>
</svg>
