<svg width="55" height="55" viewBox="0 0 55 55" fill="none" xmlns="http://www.w3.org/2000/svg">
<path fill-rule="evenodd" clip-rule="evenodd" d="M18.3334 11.4583C18.3334 6.39568 22.4375 2.29163 27.5001 2.29163C32.5627 2.29163 36.6667 6.39568 36.6667 11.4583V25.2083C36.6667 30.2709 32.5627 34.375 27.5001 34.375C22.4375 34.375 18.3334 30.2709 18.3334 25.2083V11.4583ZM27.5001 6.87496C24.9688 6.87496 22.9167 8.92699 22.9167 11.4583V25.2083C22.9167 27.7396 24.9688 29.7916 27.5001 29.7916C30.0314 29.7916 32.0834 27.7396 32.0834 25.2083V11.4583C32.0834 8.92699 30.0314 6.87496 27.5001 6.87496ZM11.4584 22.9166C12.7241 22.9166 13.7501 23.9426 13.7501 25.2083C13.7501 32.8022 19.9062 38.9583 27.5001 38.9583C35.094 38.9583 41.2501 32.8022 41.2501 25.2083C41.2501 23.9426 42.2761 22.9166 43.5417 22.9166C44.8074 22.9166 45.8334 23.9426 45.8334 25.2083C45.8334 34.5574 38.8354 42.2721 29.7917 43.3998V48.125H36.6667C37.9324 48.125 38.9584 49.151 38.9584 50.4166C38.9584 51.6823 37.9324 52.7083 36.6667 52.7083H18.3334C17.0678 52.7083 16.0417 51.6823 16.0417 50.4166C16.0417 49.151 17.0678 48.125 18.3334 48.125H25.2084V43.3998C16.1648 42.2721 9.16675 34.5574 9.16675 25.2083C9.16675 23.9426 10.1928 22.9166 11.4584 22.9166Z" fill="#7F22FE"/>
</svg>
