<svg width="55" height="55" viewBox="0 0 55 55" fill="none" xmlns="http://www.w3.org/2000/svg">
<path fill-rule="evenodd" clip-rule="evenodd" d="M4.58325 11.4584C4.58325 7.66142 7.66129 4.58337 11.4583 4.58337H18.9732C20.946 4.58337 22.6975 5.84576 23.3213 7.71733L26.7538 18.0148C27.4751 20.1786 26.4955 22.5436 24.4554 23.5636L21.3466 25.118C23.3785 28.6669 26.333 31.6215 29.882 33.6533L31.4363 30.5446C32.4564 28.5045 34.8213 27.5249 36.9852 28.2462L47.2826 31.6786C49.1542 32.3025 50.4166 34.054 50.4166 36.0268V43.5417C50.4166 47.3387 47.3385 50.4167 43.5416 50.4167H41.2499C20.9995 50.4167 4.58325 34.0005 4.58325 13.75V11.4584ZM11.4583 9.16671C10.1926 9.16671 9.16658 10.1927 9.16658 11.4584V13.75C9.16658 31.4692 23.5308 45.8334 41.2499 45.8334H43.5416C44.8072 45.8334 45.8332 44.8074 45.8332 43.5417V36.0268L35.5358 32.5943L32.9493 37.7672C32.3993 38.8673 31.0789 39.337 29.9577 38.8315C23.8457 36.0758 18.9242 31.1543 16.1685 25.0423C15.663 23.921 16.1327 22.6007 17.2328 22.0506L22.4057 19.4642L18.9732 9.16671H11.4583ZM35.046 7.54625C35.941 6.6513 37.392 6.6513 38.287 7.54625L41.2498 10.5091L44.2127 7.54625C45.1077 6.6513 46.5587 6.6513 47.4536 7.54625C48.3486 8.44121 48.3486 9.89221 47.4536 10.7872L44.4907 13.75L47.4536 16.7129C48.3486 17.6079 48.3486 19.0589 47.4536 19.9538C46.5587 20.8488 45.1077 20.8488 44.2127 19.9538L41.2498 16.9909L38.287 19.9538C37.392 20.8488 35.941 20.8488 35.046 19.9538C34.1511 19.0589 34.1511 17.6079 35.046 16.7129L38.0089 13.75L35.046 10.7872C34.1511 9.89221 34.1511 8.44121 35.046 7.54625Z" fill="#E7000B"/>
</svg>
