<svg width="55" height="55" viewBox="0 0 55 55" fill="none" xmlns="http://www.w3.org/2000/svg">
<path fill-rule="evenodd" clip-rule="evenodd" d="M4.58325 18.3334C4.58325 14.5364 7.66129 11.4584 11.4583 11.4584H29.7916C33.5885 11.4584 36.6666 14.5364 36.6666 18.3334V19.2087L43.7835 15.6502C46.831 14.1265 50.4166 16.3425 50.4166 19.7497V35.2504C50.4166 38.6575 46.831 40.8736 43.7835 39.3498L36.6666 35.7914V36.6667C36.6666 40.4637 33.5885 43.5417 29.7916 43.5417H11.4583C7.6613 43.5417 4.58325 40.4637 4.58325 36.6667V18.3334ZM32.0833 32.0337C32.0826 32.0657 32.0826 32.0976 32.0833 32.1295V36.6667C32.0833 37.9324 31.0572 38.9584 29.7916 38.9584H11.4583C10.1926 38.9584 9.16658 37.9324 9.16658 36.6667V18.3334C9.16658 17.0677 10.1926 16.0417 11.4583 16.0417H29.7916C31.0572 16.0417 32.0833 17.0677 32.0833 18.3334V22.8706C32.0826 22.9025 32.0826 22.9344 32.0833 22.9664V32.0337ZM36.6666 30.667L45.8333 35.2504L45.8333 19.7497L36.6666 24.333V30.667Z" fill="#7F22FE"/>
</svg>
