<svg width="61" height="61" viewBox="0 0 61 61" fill="none" xmlns="http://www.w3.org/2000/svg">
<path fill-rule="evenodd" clip-rule="evenodd" d="M55.9167 30.4999C55.9167 31.4627 55.3728 32.3427 54.5118 32.7733L8.76175 55.6483C7.88476 56.0868 6.83375 55.9817 6.06091 55.3783C5.28807 54.7749 4.93123 53.7807 5.14394 52.8236L10.1047 30.4999L5.14394 8.1763C4.93124 7.21915 5.28807 6.225 6.06091 5.62158C6.83375 5.01817 7.88476 4.91311 8.76175 5.3516L54.5118 28.2266C55.3728 28.6571 55.9167 29.5372 55.9167 30.4999ZM14.7473 33.0416L11.2646 48.7135L47.6917 30.4999L11.2646 12.2864L14.7473 27.9583L33.0417 27.9583C34.4455 27.9583 35.5834 29.0962 35.5834 30.4999C35.5834 31.9037 34.4455 33.0416 33.0417 33.0416L14.7473 33.0416Z" fill="#7F22FE"/>
</svg>
