<svg width="28" height="28" viewBox="0 0 28 28" fill="none" xmlns="http://www.w3.org/2000/svg">
<path d="M13.6924 1C20.7022 1.00004 26.3848 6.68264 26.3848 13.6924C26.3847 20.7021 20.7021 26.3847 13.6924 26.3848C6.68264 26.3848 1.00004 20.7022 1 13.6924C1 6.68261 6.68261 1 13.6924 1ZM6.73926 10.2207C6.2167 11.265 5.92285 12.4436 5.92285 13.6924C5.92289 17.9832 9.40158 21.4619 13.6924 21.4619C14.941 21.4619 16.1189 21.167 17.1631 20.6445L6.73926 10.2207ZM13.6924 5.92285C12.4436 5.92285 11.265 6.2167 10.2207 6.73926L20.6445 17.1631C21.167 16.1189 21.4619 14.941 21.4619 13.6924C21.4619 9.40158 17.9832 5.92289 13.6924 5.92285Z" fill="#F4090D" stroke="white" stroke-width="2"/>
</svg>
