<svg width="55" height="55" viewBox="0 0 55 55" fill="none" xmlns="http://www.w3.org/2000/svg">
<path fill-rule="evenodd" clip-rule="evenodd" d="M27.5001 11.4583C24.9688 11.4583 22.9167 13.5104 22.9167 16.0417C22.9167 18.573 24.9688 20.625 27.5001 20.625C30.0314 20.625 32.0834 18.573 32.0834 16.0417C32.0834 13.5104 30.0314 11.4583 27.5001 11.4583ZM18.3334 16.0417C18.3334 10.9791 22.4375 6.875 27.5001 6.875C32.5627 6.875 36.6667 10.9791 36.6667 16.0417C36.6667 21.1043 32.5627 25.2083 27.5001 25.2083C22.4375 25.2083 18.3334 21.1043 18.3334 16.0417ZM11.4584 20.625C10.1928 20.625 9.16675 21.651 9.16675 22.9167C9.16675 24.1823 10.1928 25.2083 11.4584 25.2083C12.7241 25.2083 13.7501 24.1823 13.7501 22.9167C13.7501 21.651 12.7241 20.625 11.4584 20.625ZM4.58341 22.9167C4.58341 19.1197 7.66146 16.0417 11.4584 16.0417C15.2554 16.0417 18.3334 19.1197 18.3334 22.9167C18.3334 26.7136 15.2554 29.7917 11.4584 29.7917C7.66146 29.7917 4.58341 26.7136 4.58341 22.9167ZM43.5417 20.625C42.2761 20.625 41.2501 21.651 41.2501 22.9167C41.2501 24.1823 42.2761 25.2083 43.5417 25.2083C44.8074 25.2083 45.8334 24.1823 45.8334 22.9167C45.8334 21.651 44.8074 20.625 43.5417 20.625ZM36.6667 22.9167C36.6667 19.1197 39.7448 16.0417 43.5417 16.0417C47.3387 16.0417 50.4167 19.1197 50.4167 22.9167C50.4167 26.7136 47.3387 29.7917 43.5417 29.7917C39.7448 29.7917 36.6667 26.7136 36.6667 22.9167ZM27.5001 32.0833C23.6442 32.0833 20.339 34.4649 18.9857 37.8457C18.5656 38.8952 18.3334 40.0427 18.3334 41.25V43.5417H36.6667V41.25C36.6667 40.0427 36.4345 38.8952 36.0145 37.8457C34.6612 34.4649 31.356 32.0833 27.5001 32.0833ZM41.2501 43.5417H48.1251V41.25C48.1251 38.7187 46.073 36.6667 43.5417 36.6667C42.4966 36.6667 41.5335 37.0152 40.7613 37.6057C41.0802 38.7681 41.2501 39.9906 41.2501 41.25V43.5417ZM38.7948 33.4071C36.3126 29.8388 32.1813 27.5 27.5001 27.5C22.8189 27.5 18.6876 29.8388 16.2053 33.4071C14.8212 32.5678 13.1962 32.0833 11.4584 32.0833C6.3958 32.0833 2.29175 36.1874 2.29175 41.25V45.8333C2.29175 47.099 3.31776 48.125 4.58341 48.125H50.4167C51.6824 48.125 52.7084 47.099 52.7084 45.8333V41.25C52.7084 36.1874 48.6044 32.0833 43.5417 32.0833C41.804 32.0833 40.1789 32.5678 38.7948 33.4071ZM14.2388 37.6057C13.4666 37.0152 12.5036 36.6667 11.4584 36.6667C8.92711 36.6667 6.87508 38.7187 6.87508 41.25V43.5417H13.7501V41.25C13.7501 39.9906 13.92 38.7681 14.2388 37.6057Z" fill="#7F22FE"/>
</svg>
